<svg height="526" width="720" xmlns="http://www.w3.org/2000/svg">
<rect height="526" fill="#555" width="720"></rect>
<text fill="#7f7" font-family="Courier New" font-size="12" xml:space="preserve">
<tspan x="10" y="26">2 megabytes installed</tspan>
<tspan x="10" y="42"></tspan>
<tspan x="10" y="58">node_modules</tspan>
<tspan x="10" y="74">└─┬ gulp-google-webfonts@0.0.14 </tspan>
<tspan x="10" y="90">  ├── async@0.9.2 </tspan>
<tspan x="10" y="106">  ├─┬ commander@2.9.0 </tspan>
<tspan x="10" y="122">  │ └── graceful-readlink@1.0.1 </tspan>
<tspan x="10" y="138">  ├─┬ lodash.defaults@3.1.2 </tspan>
<tspan x="10" y="154">  │ ├─┬ lodash.assign@3.2.0 </tspan>
<tspan x="10" y="170">  │ │ ├─┬ lodash._baseassign@3.2.0 </tspan>
<tspan x="10" y="186">  │ │ │ └── lodash._basecopy@3.0.1 </tspan>
<tspan x="10" y="202">  │ │ ├─┬ lodash._createassigner@3.1.1 </tspan>
<tspan x="10" y="218">  │ │ │ ├── lodash._bindcallback@3.0.1 </tspan>
<tspan x="10" y="234">  │ │ │ └── lodash._isiterateecall@3.0.9 </tspan>
<tspan x="10" y="250">  │ │ └─┬ lodash.keys@3.1.2 </tspan>
<tspan x="10" y="266">  │ │   ├── lodash._getnative@3.9.1 </tspan>
<tspan x="10" y="282">  │ │   ├── lodash.isarguments@3.1.0 </tspan>
<tspan x="10" y="298">  │ │   └── lodash.isarray@3.0.4 </tspan>
<tspan x="10" y="314">  │ └── lodash.restparam@3.6.1 </tspan>
<tspan x="10" y="330">  ├─┬ mkdirp@0.5.1 </tspan>
<tspan x="10" y="346">  │ └── minimist@0.0.8 </tspan>
<tspan x="10" y="362">  ├─┬ through2@0.6.5 </tspan>
<tspan x="10" y="378">  │ ├─┬ readable-stream@1.0.34 </tspan>
<tspan x="10" y="394">  │ │ ├── core-util-is@1.0.2 </tspan>
<tspan x="10" y="410">  │ │ ├── inherits@2.0.3 </tspan>
<tspan x="10" y="426">  │ │ ├── isarray@0.0.1 </tspan>
<tspan x="10" y="442">  │ │ └── string_decoder@0.10.31 </tspan>
<tspan x="10" y="458">  │ └── xtend@4.0.1 </tspan>
<tspan x="10" y="474">  └─┬ vinyl@0.4.6 </tspan>
<tspan x="10" y="490">    ├── clone@0.2.0 </tspan>
<tspan x="10" y="506">    └── clone-stats@0.0.1</tspan>
</text>
</svg>
